<mxfile host="app.diagrams.net" agent="Mozilla/5.0 (Windows NT 10.0; Win64; x64) AppleWebKit/537.36 (KHTML, like Gecko) Chrome/126.0.0.0 Safari/537.36" version="24.7.17" pages="5">
  <diagram name="Entities" id="KsgD0CeZF-tsz6_T1cuY">
    <mxGraphModel dx="1190" dy="847" grid="1" gridSize="10" guides="1" tooltips="1" connect="1" arrows="1" fold="1" page="1" pageScale="1" pageWidth="1654" pageHeight="2336" math="0" shadow="0">
      <root>
        <mxCell id="0" />
        <mxCell id="1" parent="0" />
        <mxCell id="1DCUiowCOQOJqRZ3j38a-3" value="&lt;h1 style=&quot;margin-top: 0px;&quot;&gt;LabsManager.&lt;/h1&gt;&lt;div&gt;The programm application to manage your labs with any subjects&lt;/div&gt;" style="text;html=1;whiteSpace=wrap;overflow=hidden;rounded=0;" parent="1" vertex="1">
          <mxGeometry y="10" width="180" height="120" as="geometry" />
        </mxCell>
        <mxCell id="1DCUiowCOQOJqRZ3j38a-9" value="&lt;font style=&quot;font-size: 16px;&quot;&gt;Entities&lt;/font&gt;" style="text;html=1;align=center;verticalAlign=middle;resizable=0;points=[];autosize=1;strokeColor=none;fillColor=none;" parent="1" vertex="1">
          <mxGeometry x="440" y="10" width="80" height="30" as="geometry" />
        </mxCell>
        <mxCell id="1DCUiowCOQOJqRZ3j38a-21" value="Persons models" style="swimlane;whiteSpace=wrap;html=1;" parent="1" vertex="1">
          <mxGeometry x="440" y="40" width="510" height="550" as="geometry">
            <mxRectangle x="440" y="40" width="140" height="30" as="alternateBounds" />
          </mxGeometry>
        </mxCell>
        <mxCell id="1DCUiowCOQOJqRZ3j38a-24" value="schoolar" style="swimlane;whiteSpace=wrap;html=1;" parent="1DCUiowCOQOJqRZ3j38a-21" vertex="1">
          <mxGeometry x="280" y="40" width="200" height="200" as="geometry">
            <mxRectangle x="440" y="50" width="150" height="30" as="alternateBounds" />
          </mxGeometry>
        </mxCell>
        <mxCell id="1DCUiowCOQOJqRZ3j38a-42" value="&lt;ul&gt;&lt;li&gt;Faculty&lt;/li&gt;&lt;li&gt;speciality&lt;/li&gt;&lt;li&gt;Subjects&lt;/li&gt;&lt;/ul&gt;" style="text;html=1;align=left;verticalAlign=middle;resizable=0;points=[];autosize=1;strokeColor=none;fillColor=none;" parent="1DCUiowCOQOJqRZ3j38a-24" vertex="1">
          <mxGeometry x="-3" y="30" width="110" height="80" as="geometry" />
        </mxCell>
        <mxCell id="1DCUiowCOQOJqRZ3j38a-23" value="teacher" style="swimlane;whiteSpace=wrap;html=1;" parent="1DCUiowCOQOJqRZ3j38a-21" vertex="1">
          <mxGeometry x="40" y="280" width="200" height="200" as="geometry">
            <mxRectangle x="440" y="50" width="150" height="30" as="alternateBounds" />
          </mxGeometry>
        </mxCell>
        <mxCell id="1DCUiowCOQOJqRZ3j38a-39" value="&lt;ul&gt;&lt;li&gt;Faculty&lt;/li&gt;&lt;li&gt;Cafedra&lt;/li&gt;&lt;li&gt;Subjects&lt;/li&gt;&lt;li&gt;isAdmin&lt;/li&gt;&lt;/ul&gt;" style="text;html=1;align=left;verticalAlign=middle;resizable=0;points=[];autosize=1;strokeColor=none;fillColor=none;" parent="1DCUiowCOQOJqRZ3j38a-23" vertex="1">
          <mxGeometry x="-10" y="30" width="110" height="100" as="geometry" />
        </mxCell>
        <mxCell id="1DCUiowCOQOJqRZ3j38a-22" value="The user base model" style="swimlane;whiteSpace=wrap;html=1;" parent="1DCUiowCOQOJqRZ3j38a-21" vertex="1">
          <mxGeometry x="40" y="40" width="200" height="200" as="geometry">
            <mxRectangle x="440" y="50" width="150" height="30" as="alternateBounds" />
          </mxGeometry>
        </mxCell>
        <mxCell id="1DCUiowCOQOJqRZ3j38a-38" value="&lt;ul&gt;&lt;li&gt;id&lt;/li&gt;&lt;li&gt;name&lt;/li&gt;&lt;li&gt;login&lt;/li&gt;&lt;li&gt;password&lt;/li&gt;&lt;/ul&gt;" style="text;html=1;align=left;verticalAlign=middle;resizable=0;points=[];autosize=1;strokeColor=none;fillColor=none;" parent="1DCUiowCOQOJqRZ3j38a-22" vertex="1">
          <mxGeometry y="30" width="110" height="100" as="geometry" />
        </mxCell>
        <mxCell id="1DCUiowCOQOJqRZ3j38a-26" value="labs models" style="swimlane;whiteSpace=wrap;html=1;" parent="1" vertex="1">
          <mxGeometry x="980" y="40" width="590" height="550" as="geometry" />
        </mxCell>
        <mxCell id="1DCUiowCOQOJqRZ3j38a-27" value="labs base model" style="swimlane;whiteSpace=wrap;html=1;" parent="1DCUiowCOQOJqRZ3j38a-26" vertex="1">
          <mxGeometry x="30" y="50" width="200" height="200" as="geometry" />
        </mxCell>
        <mxCell id="1DCUiowCOQOJqRZ3j38a-32" value="&lt;ul&gt;&lt;li&gt;labId&lt;/li&gt;&lt;li&gt;labName&lt;/li&gt;&lt;li&gt;description&lt;/li&gt;&lt;li&gt;materials&lt;/li&gt;&lt;li&gt;exersise&lt;/li&gt;&lt;/ul&gt;" style="text;html=1;align=left;verticalAlign=middle;resizable=0;points=[];autosize=1;strokeColor=none;fillColor=none;" parent="1DCUiowCOQOJqRZ3j38a-27" vertex="1">
          <mxGeometry x="-20" y="5" width="120" height="110" as="geometry" />
        </mxCell>
        <mxCell id="1DCUiowCOQOJqRZ3j38a-43" value="pass lab model" style="swimlane;whiteSpace=wrap;html=1;" parent="1DCUiowCOQOJqRZ3j38a-26" vertex="1">
          <mxGeometry x="40" y="280" width="200" height="200" as="geometry" />
        </mxCell>
        <mxCell id="1DCUiowCOQOJqRZ3j38a-44" value="&lt;ul&gt;&lt;li&gt;passId&lt;/li&gt;&lt;li&gt;labId&lt;/li&gt;&lt;li&gt;schoolarId&lt;/li&gt;&lt;li&gt;mark&lt;/li&gt;&lt;li&gt;percents&lt;/li&gt;&lt;li&gt;isCheked&lt;/li&gt;&lt;li&gt;isNotGeted&lt;/li&gt;&lt;/ul&gt;" style="text;html=1;align=left;verticalAlign=middle;resizable=0;points=[];autosize=1;strokeColor=none;fillColor=none;" parent="1DCUiowCOQOJqRZ3j38a-43" vertex="1">
          <mxGeometry x="-20" y="10" width="120" height="140" as="geometry" />
        </mxCell>
        <mxCell id="1DCUiowCOQOJqRZ3j38a-33" value="subjects models" style="swimlane;whiteSpace=wrap;html=1;" parent="1" vertex="1">
          <mxGeometry x="440" y="630" width="510" height="550" as="geometry">
            <mxRectangle x="440" y="40" width="140" height="30" as="alternateBounds" />
          </mxGeometry>
        </mxCell>
        <mxCell id="1DCUiowCOQOJqRZ3j38a-45" value="The subject base model" style="swimlane;whiteSpace=wrap;html=1;" parent="1DCUiowCOQOJqRZ3j38a-33" vertex="1">
          <mxGeometry x="20" y="40" width="200" height="200" as="geometry" />
        </mxCell>
        <mxCell id="1DCUiowCOQOJqRZ3j38a-46" value="&lt;ul&gt;&lt;li&gt;SubjectId&lt;/li&gt;&lt;li&gt;SubjectName&lt;/li&gt;&lt;li&gt;SubjectDescription&lt;/li&gt;&lt;li&gt;needHours&lt;/li&gt;&lt;li&gt;labs&lt;/li&gt;&lt;li&gt;Subscribers&lt;/li&gt;&lt;li&gt;AuthorId&lt;/li&gt;&lt;/ul&gt;" style="text;html=1;align=left;verticalAlign=middle;resizable=0;points=[];autosize=1;strokeColor=none;fillColor=none;" parent="1DCUiowCOQOJqRZ3j38a-45" vertex="1">
          <mxGeometry x="-20" y="5" width="160" height="140" as="geometry" />
        </mxCell>
        <mxCell id="1DCUiowCOQOJqRZ3j38a-47" value="Subscribe subject model" style="swimlane;whiteSpace=wrap;html=1;" parent="1DCUiowCOQOJqRZ3j38a-33" vertex="1">
          <mxGeometry x="270" y="40" width="200" height="200" as="geometry" />
        </mxCell>
        <mxCell id="1DCUiowCOQOJqRZ3j38a-49" value="&lt;ul&gt;&lt;li&gt;followId&lt;/li&gt;&lt;li&gt;SubjectId&lt;/li&gt;&lt;li&gt;schoolarId&lt;/li&gt;&lt;li&gt;DateOfFolloving&lt;/li&gt;&lt;/ul&gt;" style="text;html=1;align=left;verticalAlign=middle;resizable=0;points=[];autosize=1;strokeColor=none;fillColor=none;" parent="1DCUiowCOQOJqRZ3j38a-47" vertex="1">
          <mxGeometry x="-18" y="25" width="150" height="100" as="geometry" />
        </mxCell>
        <mxCell id="IWZQ8kVEb4G5mcpfjhoG-2" value="" style="rounded=0;whiteSpace=wrap;html=1;fillColor=#0F0F0F;fillStyle=dots;gradientColor=none;" vertex="1" parent="1">
          <mxGeometry x="410" y="615" width="570" height="585" as="geometry" />
        </mxCell>
      </root>
    </mxGraphModel>
  </diagram>
  <diagram id="huHXx9j0QJzFfPH_eb4y" name="rights">
    <mxGraphModel dx="1190" dy="847" grid="1" gridSize="10" guides="1" tooltips="1" connect="1" arrows="1" fold="1" page="1" pageScale="1" pageWidth="1654" pageHeight="2336" math="0" shadow="0">
      <root>
        <mxCell id="0" />
        <mxCell id="1" parent="0" />
        <mxCell id="mD_JKgst_56GkP82Yf19-26" value="schoolar" style="whiteSpace=wrap;html=1;aspect=fixed;" parent="1" vertex="1">
          <mxGeometry x="105" y="40" width="80" height="80" as="geometry" />
        </mxCell>
        <mxCell id="mD_JKgst_56GkP82Yf19-27" value="teacher" style="whiteSpace=wrap;html=1;aspect=fixed;" parent="1" vertex="1">
          <mxGeometry x="705" y="30" width="80" height="80" as="geometry" />
        </mxCell>
        <mxCell id="mD_JKgst_56GkP82Yf19-28" value="admin" style="whiteSpace=wrap;html=1;aspect=fixed;" parent="1" vertex="1">
          <mxGeometry x="1375" y="50" width="80" height="80" as="geometry" />
        </mxCell>
        <mxCell id="mD_JKgst_56GkP82Yf19-29" value="pass labs" style="ellipse;whiteSpace=wrap;html=1;" parent="1" vertex="1">
          <mxGeometry x="60" y="150" width="170" height="80" as="geometry" />
        </mxCell>
        <mxCell id="mD_JKgst_56GkP82Yf19-30" value="follow subject" style="ellipse;whiteSpace=wrap;html=1;" parent="1" vertex="1">
          <mxGeometry x="60" y="260" width="170" height="80" as="geometry" />
        </mxCell>
        <mxCell id="mD_JKgst_56GkP82Yf19-31" value="edit subject" style="ellipse;whiteSpace=wrap;html=1;" parent="1" vertex="1">
          <mxGeometry x="660" y="160" width="170" height="80" as="geometry" />
        </mxCell>
        <mxCell id="mD_JKgst_56GkP82Yf19-32" value="create subject" style="ellipse;whiteSpace=wrap;html=1;" parent="1" vertex="1">
          <mxGeometry x="460" y="90" width="170" height="80" as="geometry" />
        </mxCell>
        <mxCell id="mD_JKgst_56GkP82Yf19-33" value="create labs" style="ellipse;whiteSpace=wrap;html=1;" parent="1" vertex="1">
          <mxGeometry x="820" y="90" width="170" height="80" as="geometry" />
        </mxCell>
        <mxCell id="mD_JKgst_56GkP82Yf19-34" value="review labs" style="ellipse;whiteSpace=wrap;html=1;" parent="1" vertex="1">
          <mxGeometry x="510" y="240" width="170" height="80" as="geometry" />
        </mxCell>
        <mxCell id="mD_JKgst_56GkP82Yf19-35" value="edit labs" style="ellipse;whiteSpace=wrap;html=1;" parent="1" vertex="1">
          <mxGeometry x="820" y="220" width="170" height="80" as="geometry" />
        </mxCell>
        <mxCell id="mD_JKgst_56GkP82Yf19-38" value="edit subject" style="ellipse;whiteSpace=wrap;html=1;" parent="1" vertex="1">
          <mxGeometry x="1465" y="180" width="170" height="80" as="geometry" />
        </mxCell>
        <mxCell id="mD_JKgst_56GkP82Yf19-39" value="edit labs" style="ellipse;whiteSpace=wrap;html=1;" parent="1" vertex="1">
          <mxGeometry x="1225" y="170" width="170" height="80" as="geometry" />
        </mxCell>
        <mxCell id="mD_JKgst_56GkP82Yf19-40" value="edit marks" style="ellipse;whiteSpace=wrap;html=1;" parent="1" vertex="1">
          <mxGeometry x="1330" y="270" width="170" height="80" as="geometry" />
        </mxCell>
        <mxCell id="oUdXoqXR9IPmNCe04e34-1" value="view mark" style="ellipse;whiteSpace=wrap;html=1;" parent="1" vertex="1">
          <mxGeometry x="60" y="360" width="170" height="80" as="geometry" />
        </mxCell>
        <mxCell id="oUdXoqXR9IPmNCe04e34-2" value="view mark" style="ellipse;whiteSpace=wrap;html=1;" parent="1" vertex="1">
          <mxGeometry x="690" y="290" width="170" height="80" as="geometry" />
        </mxCell>
        <mxCell id="8SQeGzeq6VapKLH727NP-1" value="view average mark of subject" style="ellipse;whiteSpace=wrap;html=1;" parent="1" vertex="1">
          <mxGeometry x="60" y="460" width="170" height="80" as="geometry" />
        </mxCell>
        <mxCell id="7EyC_QrHHDYo5WvUvVQT-1" value="" style="rounded=0;whiteSpace=wrap;html=1;fillColor=#0F0F0F;fillStyle=dots;gradientColor=none;" vertex="1" parent="1">
          <mxGeometry x="370" y="30" width="270" height="160" as="geometry" />
        </mxCell>
        <mxCell id="7EyC_QrHHDYo5WvUvVQT-2" value="" style="rounded=0;whiteSpace=wrap;html=1;fillColor=#0F0F0F;fillStyle=dots;gradientColor=none;" vertex="1" parent="1">
          <mxGeometry x="40" y="250" width="230" height="100" as="geometry" />
        </mxCell>
      </root>
    </mxGraphModel>
  </diagram>
  <diagram id="AQicl5HXcljPFsrM3Hvy" name="Страница — 3">
    <mxGraphModel dx="1190" dy="847" grid="1" gridSize="10" guides="1" tooltips="1" connect="1" arrows="1" fold="1" page="1" pageScale="1" pageWidth="1654" pageHeight="2336" math="0" shadow="0">
      <root>
        <mxCell id="0" />
        <mxCell id="1" parent="0" />
        <mxCell id="v-yZmL56en7-qOuZGWpk-1" style="edgeStyle=orthogonalEdgeStyle;rounded=0;orthogonalLoop=1;jettySize=auto;html=1;" parent="1" source="v-yZmL56en7-qOuZGWpk-4" target="v-yZmL56en7-qOuZGWpk-11" edge="1">
          <mxGeometry relative="1" as="geometry" />
        </mxCell>
        <mxCell id="v-yZmL56en7-qOuZGWpk-2" style="edgeStyle=orthogonalEdgeStyle;rounded=0;orthogonalLoop=1;jettySize=auto;html=1;" parent="1" source="v-yZmL56en7-qOuZGWpk-4" target="v-yZmL56en7-qOuZGWpk-8" edge="1">
          <mxGeometry relative="1" as="geometry">
            <Array as="points">
              <mxPoint x="470" y="210" />
              <mxPoint x="690" y="210" />
            </Array>
          </mxGeometry>
        </mxCell>
        <mxCell id="v-yZmL56en7-qOuZGWpk-3" style="edgeStyle=orthogonalEdgeStyle;rounded=0;orthogonalLoop=1;jettySize=auto;html=1;" parent="1" source="v-yZmL56en7-qOuZGWpk-4" target="v-yZmL56en7-qOuZGWpk-17" edge="1">
          <mxGeometry relative="1" as="geometry">
            <Array as="points">
              <mxPoint x="470" y="350" />
              <mxPoint x="690" y="350" />
            </Array>
          </mxGeometry>
        </mxCell>
        <mxCell id="v-yZmL56en7-qOuZGWpk-4" value="Login" style="whiteSpace=wrap;html=1;aspect=fixed;" parent="1" vertex="1">
          <mxGeometry x="430" y="250" width="80" height="80" as="geometry" />
        </mxCell>
        <mxCell id="v-yZmL56en7-qOuZGWpk-5" style="edgeStyle=orthogonalEdgeStyle;rounded=0;orthogonalLoop=1;jettySize=auto;html=1;" parent="1" source="v-yZmL56en7-qOuZGWpk-8" target="v-yZmL56en7-qOuZGWpk-24" edge="1">
          <mxGeometry relative="1" as="geometry" />
        </mxCell>
        <mxCell id="v-yZmL56en7-qOuZGWpk-6" style="edgeStyle=orthogonalEdgeStyle;rounded=0;orthogonalLoop=1;jettySize=auto;html=1;" parent="1" source="v-yZmL56en7-qOuZGWpk-8" target="v-yZmL56en7-qOuZGWpk-25" edge="1">
          <mxGeometry relative="1" as="geometry" />
        </mxCell>
        <mxCell id="v-yZmL56en7-qOuZGWpk-7" style="edgeStyle=orthogonalEdgeStyle;rounded=0;orthogonalLoop=1;jettySize=auto;html=1;" parent="1" source="v-yZmL56en7-qOuZGWpk-8" target="v-yZmL56en7-qOuZGWpk-29" edge="1">
          <mxGeometry relative="1" as="geometry" />
        </mxCell>
        <mxCell id="v-yZmL56en7-qOuZGWpk-8" value="admin" style="whiteSpace=wrap;html=1;aspect=fixed;" parent="1" vertex="1">
          <mxGeometry x="675" y="90" width="80" height="80" as="geometry" />
        </mxCell>
        <mxCell id="v-yZmL56en7-qOuZGWpk-9" style="edgeStyle=orthogonalEdgeStyle;rounded=0;orthogonalLoop=1;jettySize=auto;html=1;" parent="1" source="v-yZmL56en7-qOuZGWpk-11" target="v-yZmL56en7-qOuZGWpk-22" edge="1">
          <mxGeometry relative="1" as="geometry" />
        </mxCell>
        <mxCell id="v-yZmL56en7-qOuZGWpk-10" style="edgeStyle=orthogonalEdgeStyle;rounded=0;orthogonalLoop=1;jettySize=auto;html=1;" parent="1" source="v-yZmL56en7-qOuZGWpk-11" target="v-yZmL56en7-qOuZGWpk-23" edge="1">
          <mxGeometry relative="1" as="geometry">
            <Array as="points">
              <mxPoint x="995" y="320" />
            </Array>
          </mxGeometry>
        </mxCell>
        <mxCell id="v-yZmL56en7-qOuZGWpk-11" value="schoolar" style="whiteSpace=wrap;html=1;aspect=fixed;" parent="1" vertex="1">
          <mxGeometry x="770" y="250" width="80" height="80" as="geometry" />
        </mxCell>
        <mxCell id="v-yZmL56en7-qOuZGWpk-12" style="edgeStyle=orthogonalEdgeStyle;rounded=0;orthogonalLoop=1;jettySize=auto;html=1;" parent="1" source="v-yZmL56en7-qOuZGWpk-17" target="v-yZmL56en7-qOuZGWpk-18" edge="1">
          <mxGeometry relative="1" as="geometry" />
        </mxCell>
        <mxCell id="v-yZmL56en7-qOuZGWpk-13" style="edgeStyle=orthogonalEdgeStyle;rounded=0;orthogonalLoop=1;jettySize=auto;html=1;" parent="1" source="v-yZmL56en7-qOuZGWpk-17" target="v-yZmL56en7-qOuZGWpk-21" edge="1">
          <mxGeometry relative="1" as="geometry" />
        </mxCell>
        <mxCell id="v-yZmL56en7-qOuZGWpk-14" style="edgeStyle=orthogonalEdgeStyle;rounded=0;orthogonalLoop=1;jettySize=auto;html=1;" parent="1" source="v-yZmL56en7-qOuZGWpk-17" target="v-yZmL56en7-qOuZGWpk-19" edge="1">
          <mxGeometry relative="1" as="geometry" />
        </mxCell>
        <mxCell id="v-yZmL56en7-qOuZGWpk-15" style="edgeStyle=orthogonalEdgeStyle;rounded=0;orthogonalLoop=1;jettySize=auto;html=1;" parent="1" source="v-yZmL56en7-qOuZGWpk-17" target="v-yZmL56en7-qOuZGWpk-20" edge="1">
          <mxGeometry relative="1" as="geometry" />
        </mxCell>
        <mxCell id="v-yZmL56en7-qOuZGWpk-16" style="edgeStyle=orthogonalEdgeStyle;rounded=0;orthogonalLoop=1;jettySize=auto;html=1;" parent="1" source="v-yZmL56en7-qOuZGWpk-17" target="v-yZmL56en7-qOuZGWpk-28" edge="1">
          <mxGeometry relative="1" as="geometry" />
        </mxCell>
        <mxCell id="v-yZmL56en7-qOuZGWpk-17" value="teacher" style="whiteSpace=wrap;html=1;aspect=fixed;" parent="1" vertex="1">
          <mxGeometry x="650" y="410" width="80" height="80" as="geometry" />
        </mxCell>
        <mxCell id="v-yZmL56en7-qOuZGWpk-18" value="create subject" style="ellipse;whiteSpace=wrap;html=1;" parent="1" vertex="1">
          <mxGeometry x="300" y="390" width="170" height="80" as="geometry" />
        </mxCell>
        <mxCell id="v-yZmL56en7-qOuZGWpk-19" value="edit subject" style="ellipse;whiteSpace=wrap;html=1;" parent="1" vertex="1">
          <mxGeometry x="430" y="640" width="170" height="80" as="geometry" />
        </mxCell>
        <mxCell id="v-yZmL56en7-qOuZGWpk-20" value="review labs" style="ellipse;whiteSpace=wrap;html=1;" parent="1" vertex="1">
          <mxGeometry x="630" y="650" width="170" height="80" as="geometry" />
        </mxCell>
        <mxCell id="v-yZmL56en7-qOuZGWpk-21" value="create labs" style="ellipse;whiteSpace=wrap;html=1;" parent="1" vertex="1">
          <mxGeometry x="750" y="550" width="170" height="80" as="geometry" />
        </mxCell>
        <mxCell id="v-yZmL56en7-qOuZGWpk-22" value="follow subject" style="ellipse;whiteSpace=wrap;html=1;" parent="1" vertex="1">
          <mxGeometry x="990" y="240" width="170" height="80" as="geometry" />
        </mxCell>
        <mxCell id="v-yZmL56en7-qOuZGWpk-23" value="pass labs" style="ellipse;whiteSpace=wrap;html=1;" parent="1" vertex="1">
          <mxGeometry x="910" y="360" width="170" height="80" as="geometry" />
        </mxCell>
        <mxCell id="v-yZmL56en7-qOuZGWpk-24" value="edit subject" style="ellipse;whiteSpace=wrap;html=1;" parent="1" vertex="1">
          <mxGeometry x="830" y="40" width="170" height="80" as="geometry" />
        </mxCell>
        <mxCell id="v-yZmL56en7-qOuZGWpk-25" value="edit labs" style="ellipse;whiteSpace=wrap;html=1;" parent="1" vertex="1">
          <mxGeometry x="830" y="150" width="170" height="80" as="geometry" />
        </mxCell>
        <mxCell id="v-yZmL56en7-qOuZGWpk-26" style="edgeStyle=orthogonalEdgeStyle;rounded=0;orthogonalLoop=1;jettySize=auto;html=1;" parent="1" source="v-yZmL56en7-qOuZGWpk-27" target="v-yZmL56en7-qOuZGWpk-4" edge="1">
          <mxGeometry relative="1" as="geometry" />
        </mxCell>
        <mxCell id="v-yZmL56en7-qOuZGWpk-27" value="" style="ellipse;whiteSpace=wrap;html=1;aspect=fixed;" parent="1" vertex="1">
          <mxGeometry x="110" y="250" width="80" height="80" as="geometry" />
        </mxCell>
        <mxCell id="v-yZmL56en7-qOuZGWpk-28" value="edit labs" style="ellipse;whiteSpace=wrap;html=1;" parent="1" vertex="1">
          <mxGeometry x="940" y="490" width="170" height="80" as="geometry" />
        </mxCell>
        <mxCell id="v-yZmL56en7-qOuZGWpk-29" value="edit marks" style="ellipse;whiteSpace=wrap;html=1;" parent="1" vertex="1">
          <mxGeometry x="1040" y="90" width="170" height="80" as="geometry" />
        </mxCell>
        <mxCell id="eRAdUYBpEnv9EPYx8ZTP-3" value="" style="edgeStyle=orthogonalEdgeStyle;rounded=0;orthogonalLoop=1;jettySize=auto;html=1;" parent="1" source="eRAdUYBpEnv9EPYx8ZTP-1" target="eRAdUYBpEnv9EPYx8ZTP-2" edge="1">
          <mxGeometry relative="1" as="geometry" />
        </mxCell>
        <mxCell id="eRAdUYBpEnv9EPYx8ZTP-1" value="" style="ellipse;whiteSpace=wrap;html=1;aspect=fixed;" parent="1" vertex="1">
          <mxGeometry x="20" y="1000" width="80" height="80" as="geometry" />
        </mxCell>
        <mxCell id="eRAdUYBpEnv9EPYx8ZTP-5" style="edgeStyle=orthogonalEdgeStyle;rounded=0;orthogonalLoop=1;jettySize=auto;html=1;" parent="1" source="eRAdUYBpEnv9EPYx8ZTP-2" target="eRAdUYBpEnv9EPYx8ZTP-4" edge="1">
          <mxGeometry relative="1" as="geometry">
            <Array as="points">
              <mxPoint x="300" y="1040" />
              <mxPoint x="300" y="930" />
            </Array>
          </mxGeometry>
        </mxCell>
        <mxCell id="eRAdUYBpEnv9EPYx8ZTP-7" style="edgeStyle=orthogonalEdgeStyle;rounded=0;orthogonalLoop=1;jettySize=auto;html=1;" parent="1" source="eRAdUYBpEnv9EPYx8ZTP-2" target="eRAdUYBpEnv9EPYx8ZTP-6" edge="1">
          <mxGeometry relative="1" as="geometry" />
        </mxCell>
        <mxCell id="eRAdUYBpEnv9EPYx8ZTP-2" value="Страница входа" style="rounded=1;whiteSpace=wrap;html=1;" parent="1" vertex="1">
          <mxGeometry x="160" y="1010" width="120" height="60" as="geometry" />
        </mxCell>
        <mxCell id="eRAdUYBpEnv9EPYx8ZTP-8" style="edgeStyle=orthogonalEdgeStyle;rounded=0;orthogonalLoop=1;jettySize=auto;html=1;" parent="1" source="eRAdUYBpEnv9EPYx8ZTP-4" target="eRAdUYBpEnv9EPYx8ZTP-2" edge="1">
          <mxGeometry relative="1" as="geometry">
            <Array as="points">
              <mxPoint x="500" y="930" />
              <mxPoint x="500" y="860" />
              <mxPoint x="220" y="860" />
            </Array>
          </mxGeometry>
        </mxCell>
        <mxCell id="eRAdUYBpEnv9EPYx8ZTP-4" value="регистрация" style="rounded=1;whiteSpace=wrap;html=1;" parent="1" vertex="1">
          <mxGeometry x="360" y="900" width="120" height="60" as="geometry" />
        </mxCell>
        <mxCell id="f7xMPnvNVTI24pST-_pp-1" style="edgeStyle=orthogonalEdgeStyle;rounded=0;orthogonalLoop=1;jettySize=auto;html=1;" parent="1" source="eRAdUYBpEnv9EPYx8ZTP-6" edge="1">
          <mxGeometry relative="1" as="geometry">
            <mxPoint x="640" y="1080" as="targetPoint" />
          </mxGeometry>
        </mxCell>
        <mxCell id="_PCKiq_BGubsmle9Wr8a-9" style="edgeStyle=orthogonalEdgeStyle;rounded=0;orthogonalLoop=1;jettySize=auto;html=1;" parent="1" source="eRAdUYBpEnv9EPYx8ZTP-6" target="_PCKiq_BGubsmle9Wr8a-8" edge="1">
          <mxGeometry relative="1" as="geometry">
            <Array as="points">
              <mxPoint x="1170" y="1040" />
            </Array>
          </mxGeometry>
        </mxCell>
        <mxCell id="eRAdUYBpEnv9EPYx8ZTP-6" value="авторизация" style="rounded=1;whiteSpace=wrap;html=1;" parent="1" vertex="1">
          <mxGeometry x="360" y="1010" width="120" height="60" as="geometry" />
        </mxCell>
        <mxCell id="f7xMPnvNVTI24pST-_pp-2" value="Авторизация&amp;nbsp;&lt;div&gt;как &quot;студент&quot;&amp;nbsp;&lt;/div&gt;" style="text;html=1;align=center;verticalAlign=middle;resizable=0;points=[];autosize=1;strokeColor=none;fillColor=none;" parent="1" vertex="1">
          <mxGeometry x="630" y="1040" width="100" height="40" as="geometry" />
        </mxCell>
        <mxCell id="eObruiUJzkjZ-gW_uKWM-5" value="" style="edgeStyle=orthogonalEdgeStyle;rounded=0;orthogonalLoop=1;jettySize=auto;html=1;" parent="1" source="f7xMPnvNVTI24pST-_pp-3" target="f7xMPnvNVTI24pST-_pp-6" edge="1">
          <mxGeometry relative="1" as="geometry" />
        </mxCell>
        <mxCell id="f7xMPnvNVTI24pST-_pp-3" value="список лаб" style="rounded=1;whiteSpace=wrap;html=1;" parent="1" vertex="1">
          <mxGeometry x="490" y="1330" width="120" height="60" as="geometry" />
        </mxCell>
        <mxCell id="_PCKiq_BGubsmle9Wr8a-1" value="" style="edgeStyle=orthogonalEdgeStyle;rounded=0;orthogonalLoop=1;jettySize=auto;html=1;" parent="1" source="f7xMPnvNVTI24pST-_pp-4" target="f7xMPnvNVTI24pST-_pp-7" edge="1">
          <mxGeometry relative="1" as="geometry" />
        </mxCell>
        <mxCell id="BuqJQISKk2nISYqwEmie-8" value="" style="edgeStyle=orthogonalEdgeStyle;rounded=0;orthogonalLoop=1;jettySize=auto;html=1;" parent="1" source="f7xMPnvNVTI24pST-_pp-4" target="BuqJQISKk2nISYqwEmie-7" edge="1">
          <mxGeometry relative="1" as="geometry" />
        </mxCell>
        <mxCell id="f7xMPnvNVTI24pST-_pp-4" value="профиль" style="rounded=1;whiteSpace=wrap;html=1;" parent="1" vertex="1">
          <mxGeometry x="810" y="1168" width="120" height="60" as="geometry" />
        </mxCell>
        <mxCell id="f7xMPnvNVTI24pST-_pp-5" value="сдать лабу" style="rounded=1;whiteSpace=wrap;html=1;" parent="1" vertex="1">
          <mxGeometry x="490" y="1490" width="120" height="60" as="geometry" />
        </mxCell>
        <mxCell id="eObruiUJzkjZ-gW_uKWM-6" value="" style="edgeStyle=orthogonalEdgeStyle;rounded=0;orthogonalLoop=1;jettySize=auto;html=1;" parent="1" source="f7xMPnvNVTI24pST-_pp-6" target="f7xMPnvNVTI24pST-_pp-5" edge="1">
          <mxGeometry relative="1" as="geometry" />
        </mxCell>
        <mxCell id="f7xMPnvNVTI24pST-_pp-6" value="открыть 1 лабу" style="rounded=1;whiteSpace=wrap;html=1;" parent="1" vertex="1">
          <mxGeometry x="490" y="1410" width="120" height="60" as="geometry" />
        </mxCell>
        <mxCell id="f7xMPnvNVTI24pST-_pp-7" value="таблица успеваемости&lt;div&gt;по лабам&lt;/div&gt;" style="rounded=1;whiteSpace=wrap;html=1;" parent="1" vertex="1">
          <mxGeometry x="810" y="1290" width="120" height="60" as="geometry" />
        </mxCell>
        <mxCell id="eObruiUJzkjZ-gW_uKWM-7" value="" style="edgeStyle=orthogonalEdgeStyle;rounded=0;orthogonalLoop=1;jettySize=auto;html=1;" parent="1" source="f7xMPnvNVTI24pST-_pp-8" target="f7xMPnvNVTI24pST-_pp-9" edge="1">
          <mxGeometry relative="1" as="geometry" />
        </mxCell>
        <mxCell id="f7xMPnvNVTI24pST-_pp-8" value="все предметы" style="rounded=1;whiteSpace=wrap;html=1;" parent="1" vertex="1">
          <mxGeometry x="330" y="1169" width="120" height="60" as="geometry" />
        </mxCell>
        <mxCell id="eObruiUJzkjZ-gW_uKWM-9" value="" style="edgeStyle=orthogonalEdgeStyle;rounded=0;orthogonalLoop=1;jettySize=auto;html=1;" parent="1" source="f7xMPnvNVTI24pST-_pp-9" target="f7xMPnvNVTI24pST-_pp-10" edge="1">
          <mxGeometry relative="1" as="geometry" />
        </mxCell>
        <mxCell id="f7xMPnvNVTI24pST-_pp-9" value="выбрать 1 предмет" style="rounded=1;whiteSpace=wrap;html=1;" parent="1" vertex="1">
          <mxGeometry x="330" y="1251" width="120" height="60" as="geometry" />
        </mxCell>
        <mxCell id="f7xMPnvNVTI24pST-_pp-10" value="подписаться на предмет" style="rounded=1;whiteSpace=wrap;html=1;" parent="1" vertex="1">
          <mxGeometry x="330" y="1331" width="120" height="60" as="geometry" />
        </mxCell>
        <mxCell id="eObruiUJzkjZ-gW_uKWM-4" value="" style="edgeStyle=orthogonalEdgeStyle;rounded=0;orthogonalLoop=1;jettySize=auto;html=1;" parent="1" source="f7xMPnvNVTI24pST-_pp-11" target="f7xMPnvNVTI24pST-_pp-12" edge="1">
          <mxGeometry relative="1" as="geometry" />
        </mxCell>
        <mxCell id="f7xMPnvNVTI24pST-_pp-11" value="список моих&amp;nbsp;&lt;div&gt;предметов&lt;/div&gt;" style="rounded=1;whiteSpace=wrap;html=1;" parent="1" vertex="1">
          <mxGeometry x="490" y="1168" width="120" height="60" as="geometry" />
        </mxCell>
        <mxCell id="eObruiUJzkjZ-gW_uKWM-2" style="edgeStyle=orthogonalEdgeStyle;rounded=0;orthogonalLoop=1;jettySize=auto;html=1;" parent="1" source="f7xMPnvNVTI24pST-_pp-12" target="eObruiUJzkjZ-gW_uKWM-1" edge="1">
          <mxGeometry relative="1" as="geometry" />
        </mxCell>
        <mxCell id="eObruiUJzkjZ-gW_uKWM-3" value="" style="edgeStyle=orthogonalEdgeStyle;rounded=0;orthogonalLoop=1;jettySize=auto;html=1;" parent="1" source="f7xMPnvNVTI24pST-_pp-12" target="f7xMPnvNVTI24pST-_pp-3" edge="1">
          <mxGeometry relative="1" as="geometry" />
        </mxCell>
        <mxCell id="f7xMPnvNVTI24pST-_pp-12" value="выбрать 1 предмет" style="rounded=1;whiteSpace=wrap;html=1;" parent="1" vertex="1">
          <mxGeometry x="490" y="1250" width="120" height="60" as="geometry" />
        </mxCell>
        <mxCell id="eObruiUJzkjZ-gW_uKWM-1" value="просмотреть&amp;nbsp;&lt;div&gt;среднюю оценку&lt;/div&gt;" style="rounded=1;whiteSpace=wrap;html=1;" parent="1" vertex="1">
          <mxGeometry x="645" y="1330" width="120" height="60" as="geometry" />
        </mxCell>
        <mxCell id="eObruiUJzkjZ-gW_uKWM-10" value="просмотреть оценку" style="rounded=1;whiteSpace=wrap;html=1;" parent="1" vertex="1">
          <mxGeometry x="645" y="1490" width="120" height="60" as="geometry" />
        </mxCell>
        <mxCell id="eObruiUJzkjZ-gW_uKWM-11" style="edgeStyle=orthogonalEdgeStyle;rounded=0;orthogonalLoop=1;jettySize=auto;html=1;" parent="1" source="f7xMPnvNVTI24pST-_pp-6" target="eObruiUJzkjZ-gW_uKWM-10" edge="1">
          <mxGeometry relative="1" as="geometry" />
        </mxCell>
        <mxCell id="_PCKiq_BGubsmle9Wr8a-4" style="edgeStyle=orthogonalEdgeStyle;rounded=0;orthogonalLoop=1;jettySize=auto;html=1;" parent="1" source="_PCKiq_BGubsmle9Wr8a-3" target="f7xMPnvNVTI24pST-_pp-8" edge="1">
          <mxGeometry relative="1" as="geometry">
            <Array as="points">
              <mxPoint x="640" y="1110" />
              <mxPoint x="390" y="1110" />
            </Array>
          </mxGeometry>
        </mxCell>
        <mxCell id="_PCKiq_BGubsmle9Wr8a-5" style="edgeStyle=orthogonalEdgeStyle;rounded=0;orthogonalLoop=1;jettySize=auto;html=1;" parent="1" source="_PCKiq_BGubsmle9Wr8a-3" target="f7xMPnvNVTI24pST-_pp-11" edge="1">
          <mxGeometry relative="1" as="geometry" />
        </mxCell>
        <mxCell id="_PCKiq_BGubsmle9Wr8a-6" style="edgeStyle=orthogonalEdgeStyle;rounded=0;orthogonalLoop=1;jettySize=auto;html=1;" parent="1" source="_PCKiq_BGubsmle9Wr8a-3" target="f7xMPnvNVTI24pST-_pp-4" edge="1">
          <mxGeometry relative="1" as="geometry">
            <Array as="points">
              <mxPoint x="640" y="1110" />
              <mxPoint x="870" y="1110" />
            </Array>
          </mxGeometry>
        </mxCell>
        <mxCell id="_PCKiq_BGubsmle9Wr8a-3" value="" style="rounded=0;whiteSpace=wrap;html=1;fillColor=#000000;" parent="1" vertex="1">
          <mxGeometry x="580" y="1080" width="120" height="10" as="geometry" />
        </mxCell>
        <mxCell id="_PCKiq_BGubsmle9Wr8a-7" value="Авторизация&amp;nbsp;&lt;div&gt;как &quot;преподователь&quot;&amp;nbsp;&lt;/div&gt;" style="text;html=1;align=center;verticalAlign=middle;resizable=0;points=[];autosize=1;strokeColor=none;fillColor=none;" parent="1" vertex="1">
          <mxGeometry x="1160" y="1040" width="140" height="40" as="geometry" />
        </mxCell>
        <mxCell id="PtBZGWDJ2ZvRF6TT_lEy-6" style="edgeStyle=orthogonalEdgeStyle;rounded=0;orthogonalLoop=1;jettySize=auto;html=1;" parent="1" source="_PCKiq_BGubsmle9Wr8a-8" target="_PCKiq_BGubsmle9Wr8a-11" edge="1">
          <mxGeometry relative="1" as="geometry" />
        </mxCell>
        <mxCell id="PtBZGWDJ2ZvRF6TT_lEy-7" style="edgeStyle=orthogonalEdgeStyle;rounded=0;orthogonalLoop=1;jettySize=auto;html=1;" parent="1" source="_PCKiq_BGubsmle9Wr8a-8" target="PtBZGWDJ2ZvRF6TT_lEy-1" edge="1">
          <mxGeometry relative="1" as="geometry">
            <Array as="points">
              <mxPoint x="1180" y="1120" />
              <mxPoint x="1280" y="1120" />
            </Array>
          </mxGeometry>
        </mxCell>
        <mxCell id="BuqJQISKk2nISYqwEmie-12" style="edgeStyle=orthogonalEdgeStyle;rounded=0;orthogonalLoop=1;jettySize=auto;html=1;" parent="1" source="_PCKiq_BGubsmle9Wr8a-8" target="BuqJQISKk2nISYqwEmie-10" edge="1">
          <mxGeometry relative="1" as="geometry">
            <Array as="points">
              <mxPoint x="1180" y="1120" />
              <mxPoint x="1430" y="1120" />
            </Array>
          </mxGeometry>
        </mxCell>
        <mxCell id="_PCKiq_BGubsmle9Wr8a-8" value="" style="rounded=0;whiteSpace=wrap;html=1;fillColor=#000000;" parent="1" vertex="1">
          <mxGeometry x="1120" y="1080" width="120" height="10" as="geometry" />
        </mxCell>
        <mxCell id="_PCKiq_BGubsmle9Wr8a-10" value="проверить лабу" style="rounded=1;whiteSpace=wrap;html=1;" parent="1" vertex="1">
          <mxGeometry x="950" y="1502" width="120" height="60" as="geometry" />
        </mxCell>
        <mxCell id="_PCKiq_BGubsmle9Wr8a-15" value="" style="edgeStyle=orthogonalEdgeStyle;rounded=0;orthogonalLoop=1;jettySize=auto;html=1;" parent="1" source="_PCKiq_BGubsmle9Wr8a-11" target="_PCKiq_BGubsmle9Wr8a-12" edge="1">
          <mxGeometry relative="1" as="geometry" />
        </mxCell>
        <mxCell id="_PCKiq_BGubsmle9Wr8a-11" value="список моих&amp;nbsp;&lt;div&gt;предметов&lt;/div&gt;" style="rounded=1;whiteSpace=wrap;html=1;" parent="1" vertex="1">
          <mxGeometry x="1055" y="1160" width="120" height="60" as="geometry" />
        </mxCell>
        <mxCell id="_PCKiq_BGubsmle9Wr8a-16" value="" style="edgeStyle=orthogonalEdgeStyle;rounded=0;orthogonalLoop=1;jettySize=auto;html=1;" parent="1" source="_PCKiq_BGubsmle9Wr8a-12" target="_PCKiq_BGubsmle9Wr8a-13" edge="1">
          <mxGeometry relative="1" as="geometry">
            <Array as="points">
              <mxPoint x="1115" y="1322" />
              <mxPoint x="1010" y="1322" />
            </Array>
          </mxGeometry>
        </mxCell>
        <mxCell id="_PCKiq_BGubsmle9Wr8a-20" style="edgeStyle=orthogonalEdgeStyle;rounded=0;orthogonalLoop=1;jettySize=auto;html=1;" parent="1" source="_PCKiq_BGubsmle9Wr8a-12" target="_PCKiq_BGubsmle9Wr8a-19" edge="1">
          <mxGeometry relative="1" as="geometry" />
        </mxCell>
        <mxCell id="_PCKiq_BGubsmle9Wr8a-24" style="edgeStyle=orthogonalEdgeStyle;rounded=0;orthogonalLoop=1;jettySize=auto;html=1;" parent="1" source="_PCKiq_BGubsmle9Wr8a-12" target="_PCKiq_BGubsmle9Wr8a-23" edge="1">
          <mxGeometry relative="1" as="geometry" />
        </mxCell>
        <mxCell id="PtBZGWDJ2ZvRF6TT_lEy-5" style="edgeStyle=orthogonalEdgeStyle;rounded=0;orthogonalLoop=1;jettySize=auto;html=1;" parent="1" source="_PCKiq_BGubsmle9Wr8a-12" target="PtBZGWDJ2ZvRF6TT_lEy-4" edge="1">
          <mxGeometry relative="1" as="geometry" />
        </mxCell>
        <mxCell id="BuqJQISKk2nISYqwEmie-2" style="edgeStyle=orthogonalEdgeStyle;rounded=0;orthogonalLoop=1;jettySize=auto;html=1;" parent="1" source="_PCKiq_BGubsmle9Wr8a-12" target="BuqJQISKk2nISYqwEmie-1" edge="1">
          <mxGeometry relative="1" as="geometry" />
        </mxCell>
        <mxCell id="_PCKiq_BGubsmle9Wr8a-12" value="выбрать 1 предмет" style="rounded=1;whiteSpace=wrap;html=1;" parent="1" vertex="1">
          <mxGeometry x="1055" y="1252" width="120" height="60" as="geometry" />
        </mxCell>
        <mxCell id="_PCKiq_BGubsmle9Wr8a-17" value="" style="edgeStyle=orthogonalEdgeStyle;rounded=0;orthogonalLoop=1;jettySize=auto;html=1;" parent="1" source="_PCKiq_BGubsmle9Wr8a-13" target="_PCKiq_BGubsmle9Wr8a-14" edge="1">
          <mxGeometry relative="1" as="geometry" />
        </mxCell>
        <mxCell id="_PCKiq_BGubsmle9Wr8a-13" value="список лаб на проверку" style="rounded=1;whiteSpace=wrap;html=1;" parent="1" vertex="1">
          <mxGeometry x="950" y="1342" width="120" height="60" as="geometry" />
        </mxCell>
        <mxCell id="_PCKiq_BGubsmle9Wr8a-18" value="" style="edgeStyle=orthogonalEdgeStyle;rounded=0;orthogonalLoop=1;jettySize=auto;html=1;" parent="1" source="_PCKiq_BGubsmle9Wr8a-14" target="_PCKiq_BGubsmle9Wr8a-10" edge="1">
          <mxGeometry relative="1" as="geometry" />
        </mxCell>
        <mxCell id="_PCKiq_BGubsmle9Wr8a-14" value="открыть 1 лабу" style="rounded=1;whiteSpace=wrap;html=1;" parent="1" vertex="1">
          <mxGeometry x="950" y="1422" width="120" height="60" as="geometry" />
        </mxCell>
        <mxCell id="_PCKiq_BGubsmle9Wr8a-19" value="редактировать&lt;div&gt;предмет&lt;/div&gt;" style="rounded=1;whiteSpace=wrap;html=1;" parent="1" vertex="1">
          <mxGeometry x="1440" y="1320" width="120" height="60" as="geometry" />
        </mxCell>
        <mxCell id="_PCKiq_BGubsmle9Wr8a-21" value="редактировать&amp;nbsp;&lt;div&gt;лабу&lt;/div&gt;" style="rounded=1;whiteSpace=wrap;html=1;" parent="1" vertex="1">
          <mxGeometry x="1095" y="1502" width="120" height="60" as="geometry" />
        </mxCell>
        <mxCell id="_PCKiq_BGubsmle9Wr8a-26" value="" style="edgeStyle=orthogonalEdgeStyle;rounded=0;orthogonalLoop=1;jettySize=auto;html=1;" parent="1" source="_PCKiq_BGubsmle9Wr8a-23" target="_PCKiq_BGubsmle9Wr8a-25" edge="1">
          <mxGeometry relative="1" as="geometry" />
        </mxCell>
        <mxCell id="PtBZGWDJ2ZvRF6TT_lEy-3" style="edgeStyle=orthogonalEdgeStyle;rounded=0;orthogonalLoop=1;jettySize=auto;html=1;" parent="1" source="_PCKiq_BGubsmle9Wr8a-23" target="PtBZGWDJ2ZvRF6TT_lEy-2" edge="1">
          <mxGeometry relative="1" as="geometry" />
        </mxCell>
        <mxCell id="_PCKiq_BGubsmle9Wr8a-23" value="список лаб" style="rounded=1;whiteSpace=wrap;html=1;" parent="1" vertex="1">
          <mxGeometry x="1095" y="1342" width="120" height="60" as="geometry" />
        </mxCell>
        <mxCell id="_PCKiq_BGubsmle9Wr8a-27" value="" style="edgeStyle=orthogonalEdgeStyle;rounded=0;orthogonalLoop=1;jettySize=auto;html=1;" parent="1" source="_PCKiq_BGubsmle9Wr8a-25" target="_PCKiq_BGubsmle9Wr8a-21" edge="1">
          <mxGeometry relative="1" as="geometry" />
        </mxCell>
        <mxCell id="_PCKiq_BGubsmle9Wr8a-25" value="открыть 1 лабу" style="rounded=1;whiteSpace=wrap;html=1;" parent="1" vertex="1">
          <mxGeometry x="1095" y="1422" width="120" height="60" as="geometry" />
        </mxCell>
        <mxCell id="PtBZGWDJ2ZvRF6TT_lEy-1" value="создать предмет" style="rounded=1;whiteSpace=wrap;html=1;" parent="1" vertex="1">
          <mxGeometry x="1220" y="1160" width="120" height="60" as="geometry" />
        </mxCell>
        <mxCell id="PtBZGWDJ2ZvRF6TT_lEy-2" value="создать лабу" style="rounded=1;whiteSpace=wrap;html=1;" parent="1" vertex="1">
          <mxGeometry x="1240" y="1422" width="120" height="60" as="geometry" />
        </mxCell>
        <mxCell id="PtBZGWDJ2ZvRF6TT_lEy-4" value="список студентов&amp;nbsp;&lt;div&gt;на предмете&lt;/div&gt;" style="rounded=1;whiteSpace=wrap;html=1;" parent="1" vertex="1">
          <mxGeometry x="1520" y="1422" width="120" height="60" as="geometry" />
        </mxCell>
        <mxCell id="BuqJQISKk2nISYqwEmie-4" value="" style="edgeStyle=orthogonalEdgeStyle;rounded=0;orthogonalLoop=1;jettySize=auto;html=1;" parent="1" source="BuqJQISKk2nISYqwEmie-1" target="BuqJQISKk2nISYqwEmie-3" edge="1">
          <mxGeometry relative="1" as="geometry" />
        </mxCell>
        <mxCell id="BuqJQISKk2nISYqwEmie-1" value="список&amp;nbsp;&lt;div&gt;Проверенных лаб&lt;/div&gt;" style="rounded=1;whiteSpace=wrap;html=1;" parent="1" vertex="1">
          <mxGeometry x="1350" y="1502" width="120" height="60" as="geometry" />
        </mxCell>
        <mxCell id="BuqJQISKk2nISYqwEmie-6" value="" style="edgeStyle=orthogonalEdgeStyle;rounded=0;orthogonalLoop=1;jettySize=auto;html=1;" parent="1" source="BuqJQISKk2nISYqwEmie-3" target="BuqJQISKk2nISYqwEmie-5" edge="1">
          <mxGeometry relative="1" as="geometry" />
        </mxCell>
        <mxCell id="BuqJQISKk2nISYqwEmie-3" value="открыть 1&lt;div&gt;проверенную лабу&lt;/div&gt;" style="rounded=1;whiteSpace=wrap;html=1;" parent="1" vertex="1">
          <mxGeometry x="1350" y="1580" width="120" height="60" as="geometry" />
        </mxCell>
        <mxCell id="BuqJQISKk2nISYqwEmie-5" value="редактировать&amp;nbsp;&lt;div&gt;лабу&lt;/div&gt;" style="rounded=1;whiteSpace=wrap;html=1;" parent="1" vertex="1">
          <mxGeometry x="1350" y="1660" width="120" height="60" as="geometry" />
        </mxCell>
        <mxCell id="BuqJQISKk2nISYqwEmie-7" value="редактировать&lt;div&gt;профиль&lt;/div&gt;" style="rounded=1;whiteSpace=wrap;html=1;" parent="1" vertex="1">
          <mxGeometry x="670" y="1168" width="120" height="60" as="geometry" />
        </mxCell>
        <mxCell id="BuqJQISKk2nISYqwEmie-9" value="" style="edgeStyle=orthogonalEdgeStyle;rounded=0;orthogonalLoop=1;jettySize=auto;html=1;" parent="1" source="BuqJQISKk2nISYqwEmie-10" target="BuqJQISKk2nISYqwEmie-11" edge="1">
          <mxGeometry relative="1" as="geometry" />
        </mxCell>
        <mxCell id="BuqJQISKk2nISYqwEmie-10" value="профиль" style="rounded=1;whiteSpace=wrap;html=1;" parent="1" vertex="1">
          <mxGeometry x="1370" y="1160" width="120" height="60" as="geometry" />
        </mxCell>
        <mxCell id="BuqJQISKk2nISYqwEmie-11" value="редактировать&lt;div&gt;профиль&lt;/div&gt;" style="rounded=1;whiteSpace=wrap;html=1;" parent="1" vertex="1">
          <mxGeometry x="1534" y="1160" width="120" height="60" as="geometry" />
        </mxCell>
        <mxCell id="JScVOQ0y0Y2cGV5UKZyw-1" value="" style="rounded=0;whiteSpace=wrap;html=1;fillColor=#0F0F0F;fillStyle=dots;gradientColor=none;" vertex="1" parent="1">
          <mxGeometry x="280" y="375" width="210" height="135" as="geometry" />
        </mxCell>
        <mxCell id="JScVOQ0y0Y2cGV5UKZyw-2" value="" style="rounded=0;whiteSpace=wrap;html=1;fillColor=#0F0F0F;fillStyle=dots;gradientColor=none;" vertex="1" parent="1">
          <mxGeometry x="980" y="230" width="200" height="110" as="geometry" />
        </mxCell>
        <mxCell id="JScVOQ0y0Y2cGV5UKZyw-3" value="" style="rounded=0;whiteSpace=wrap;html=1;fillColor=#0F0F0F;fillStyle=dots;gradientColor=none;" vertex="1" parent="1">
          <mxGeometry x="320" y="1160" width="150" height="280" as="geometry" />
        </mxCell>
        <mxCell id="JScVOQ0y0Y2cGV5UKZyw-4" value="" style="rounded=0;whiteSpace=wrap;html=1;fillColor=#0F0F0F;fillStyle=dots;gradientColor=none;" vertex="1" parent="1">
          <mxGeometry x="485" y="1160" width="145" height="160" as="geometry" />
        </mxCell>
        <mxCell id="JScVOQ0y0Y2cGV5UKZyw-5" value="" style="rounded=0;whiteSpace=wrap;html=1;fillColor=#0F0F0F;fillStyle=dots;gradientColor=none;" vertex="1" parent="1">
          <mxGeometry x="1200" y="1148" width="160" height="92" as="geometry" />
        </mxCell>
        <mxCell id="JScVOQ0y0Y2cGV5UKZyw-6" value="" style="rounded=0;whiteSpace=wrap;html=1;fillColor=#0F0F0F;fillStyle=dots;gradientColor=none;" vertex="1" parent="1">
          <mxGeometry x="1490" y="1410" width="160" height="92" as="geometry" />
        </mxCell>
        <mxCell id="JScVOQ0y0Y2cGV5UKZyw-7" value="" style="rounded=0;whiteSpace=wrap;html=1;fillColor=#0F0F0F;fillStyle=dots;gradientColor=none;" vertex="1" parent="1">
          <mxGeometry x="1035" y="1150" width="160" height="177" as="geometry" />
        </mxCell>
      </root>
    </mxGraphModel>
  </diagram>
  <diagram id="lwqJjgKlZdBDfVhd5mwi" name="DB">
    <mxGraphModel dx="1612" dy="1092" grid="1" gridSize="10" guides="1" tooltips="1" connect="1" arrows="1" fold="1" page="1" pageScale="1" pageWidth="1654" pageHeight="2336" math="0" shadow="0">
      <root>
        <mxCell id="0" />
        <mxCell id="1" parent="0" />
        <mxCell id="7COuI0TtSbbmmBBgLjVK-1" value="labs manage" style="swimlane;whiteSpace=wrap;html=1;startSize=40;" parent="1" vertex="1">
          <mxGeometry x="10" y="20" width="1610" height="1100" as="geometry" />
        </mxCell>
        <mxCell id="7COuI0TtSbbmmBBgLjVK-3" value="Teachers" style="swimlane;whiteSpace=wrap;html=1;startSize=20;" parent="7COuI0TtSbbmmBBgLjVK-1" vertex="1">
          <mxGeometry x="48" y="230" width="200" height="200" as="geometry">
            <mxRectangle x="440" y="50" width="150" height="30" as="alternateBounds" />
          </mxGeometry>
        </mxCell>
        <mxCell id="7COuI0TtSbbmmBBgLjVK-4" value="&lt;ul&gt;&lt;li&gt;id&lt;/li&gt;&lt;li&gt;name&lt;/li&gt;&lt;li&gt;login&lt;/li&gt;&lt;li&gt;password&lt;/li&gt;&lt;li&gt;isAdmin&lt;/li&gt;&lt;li&gt;Faculty&lt;/li&gt;&lt;li&gt;Cafedra&lt;/li&gt;&lt;li&gt;Subjects&lt;/li&gt;&lt;/ul&gt;" style="text;html=1;align=left;verticalAlign=middle;resizable=0;points=[];autosize=1;strokeColor=none;fillColor=none;" parent="7COuI0TtSbbmmBBgLjVK-3" vertex="1">
          <mxGeometry y="5" width="110" height="150" as="geometry" />
        </mxCell>
        <mxCell id="qANXZ15ewkDYfY9fB2zr-1" value="Schoolars" style="swimlane;whiteSpace=wrap;html=1;startSize=20;" parent="7COuI0TtSbbmmBBgLjVK-1" vertex="1">
          <mxGeometry x="868" y="310" width="200" height="200" as="geometry">
            <mxRectangle x="440" y="50" width="150" height="30" as="alternateBounds" />
          </mxGeometry>
        </mxCell>
        <mxCell id="qANXZ15ewkDYfY9fB2zr-3" value="&lt;ul&gt;&lt;li&gt;id&lt;/li&gt;&lt;li&gt;name&lt;/li&gt;&lt;li&gt;login&lt;/li&gt;&lt;li&gt;password&lt;/li&gt;&lt;li&gt;Faculty&lt;/li&gt;&lt;li&gt;speciality&lt;/li&gt;&lt;li&gt;Subjects&lt;/li&gt;&lt;/ul&gt;" style="text;html=1;align=left;verticalAlign=middle;resizable=0;points=[];autosize=1;strokeColor=none;fillColor=none;" parent="qANXZ15ewkDYfY9fB2zr-1" vertex="1">
          <mxGeometry x="-10" y="10" width="110" height="140" as="geometry" />
        </mxCell>
        <mxCell id="NHI0gP0lAhU-0mHKB1Oy-2" value="Subjects" style="swimlane;whiteSpace=wrap;html=1;startSize=20;" parent="7COuI0TtSbbmmBBgLjVK-1" vertex="1">
          <mxGeometry x="338" y="450" width="200" height="200" as="geometry">
            <mxRectangle x="440" y="50" width="150" height="30" as="alternateBounds" />
          </mxGeometry>
        </mxCell>
        <mxCell id="Xs0YGreVq9pdcSUcCTey-1" value="&lt;ul&gt;&lt;li&gt;SubjectId&lt;/li&gt;&lt;li&gt;SubjectName&lt;/li&gt;&lt;li&gt;SubjectDescription&lt;/li&gt;&lt;li&gt;needHours&lt;/li&gt;&lt;li&gt;labs&lt;/li&gt;&lt;li&gt;Subscribers&lt;/li&gt;&lt;li&gt;AuthorId&lt;/li&gt;&lt;/ul&gt;" style="text;html=1;align=left;verticalAlign=middle;resizable=0;points=[];autosize=1;strokeColor=none;fillColor=none;" parent="NHI0gP0lAhU-0mHKB1Oy-2" vertex="1">
          <mxGeometry x="-10" y="10" width="160" height="140" as="geometry" />
        </mxCell>
        <mxCell id="NHI0gP0lAhU-0mHKB1Oy-4" value="Labs" style="swimlane;whiteSpace=wrap;html=1;startSize=20;" parent="7COuI0TtSbbmmBBgLjVK-1" vertex="1">
          <mxGeometry x="1358" y="420" width="200" height="200" as="geometry">
            <mxRectangle x="440" y="50" width="150" height="30" as="alternateBounds" />
          </mxGeometry>
        </mxCell>
        <mxCell id="8PARREaNe9668o7FO1LD-1" value="&lt;ul&gt;&lt;li&gt;labId&lt;/li&gt;&lt;li&gt;labName&lt;/li&gt;&lt;li&gt;description&lt;/li&gt;&lt;li&gt;materials&lt;/li&gt;&lt;li&gt;exersise&lt;/li&gt;&lt;/ul&gt;" style="text;html=1;align=left;verticalAlign=middle;resizable=0;points=[];autosize=1;strokeColor=none;fillColor=none;" parent="NHI0gP0lAhU-0mHKB1Oy-4" vertex="1">
          <mxGeometry x="-10" y="10" width="120" height="110" as="geometry" />
        </mxCell>
        <mxCell id="G8-joyKIpsHCp3dA0FhB-1" value="Subscribe subject models" style="swimlane;whiteSpace=wrap;html=1;" parent="7COuI0TtSbbmmBBgLjVK-1" vertex="1">
          <mxGeometry x="618" y="690" width="200" height="200" as="geometry" />
        </mxCell>
        <mxCell id="G8-joyKIpsHCp3dA0FhB-2" value="&lt;ul&gt;&lt;li&gt;followId&lt;/li&gt;&lt;li&gt;SubjectId&lt;/li&gt;&lt;li&gt;schoolarId&lt;/li&gt;&lt;li&gt;DateOfFolloving&lt;/li&gt;&lt;/ul&gt;" style="text;html=1;align=left;verticalAlign=middle;resizable=0;points=[];autosize=1;strokeColor=none;fillColor=none;" parent="G8-joyKIpsHCp3dA0FhB-1" vertex="1">
          <mxGeometry x="-18" y="25" width="150" height="100" as="geometry" />
        </mxCell>
        <mxCell id="6oRb0mR_Q0YfdtYureJh-1" value="pass lab models" style="swimlane;whiteSpace=wrap;html=1;" parent="7COuI0TtSbbmmBBgLjVK-1" vertex="1">
          <mxGeometry x="1088" y="650" width="200" height="200" as="geometry" />
        </mxCell>
        <mxCell id="6oRb0mR_Q0YfdtYureJh-2" value="&lt;ul&gt;&lt;li&gt;passId&lt;/li&gt;&lt;li&gt;labId&lt;/li&gt;&lt;li&gt;schoolarId&lt;/li&gt;&lt;li&gt;mark&lt;/li&gt;&lt;li&gt;percents&lt;/li&gt;&lt;li&gt;isCheked&lt;/li&gt;&lt;li&gt;isNotGeted&lt;/li&gt;&lt;/ul&gt;" style="text;html=1;align=left;verticalAlign=middle;resizable=0;points=[];autosize=1;strokeColor=none;fillColor=none;" parent="6oRb0mR_Q0YfdtYureJh-1" vertex="1">
          <mxGeometry x="-20" y="10" width="120" height="140" as="geometry" />
        </mxCell>
        <mxCell id="6oRb0mR_Q0YfdtYureJh-4" value="" style="edgeStyle=entityRelationEdgeStyle;fontSize=12;html=1;endArrow=ERoneToMany;rounded=0;" parent="7COuI0TtSbbmmBBgLjVK-1" source="NHI0gP0lAhU-0mHKB1Oy-4" target="6oRb0mR_Q0YfdtYureJh-1" edge="1">
          <mxGeometry width="100" height="100" relative="1" as="geometry">
            <mxPoint x="1038" y="520" as="sourcePoint" />
            <mxPoint x="1138" y="420" as="targetPoint" />
          </mxGeometry>
        </mxCell>
        <mxCell id="6oRb0mR_Q0YfdtYureJh-18" value="" style="edgeStyle=entityRelationEdgeStyle;fontSize=12;html=1;endArrow=ERoneToMany;rounded=0;" parent="7COuI0TtSbbmmBBgLjVK-1" source="G8-joyKIpsHCp3dA0FhB-1" target="qANXZ15ewkDYfY9fB2zr-1" edge="1">
          <mxGeometry width="100" height="100" relative="1" as="geometry">
            <mxPoint x="1048" y="460" as="sourcePoint" />
            <mxPoint x="1228" y="450" as="targetPoint" />
            <Array as="points">
              <mxPoint x="1068" y="620" />
              <mxPoint x="968" y="620" />
            </Array>
          </mxGeometry>
        </mxCell>
        <mxCell id="6oRb0mR_Q0YfdtYureJh-19" value="" style="edgeStyle=entityRelationEdgeStyle;fontSize=12;html=1;endArrow=ERoneToMany;rounded=0;" parent="7COuI0TtSbbmmBBgLjVK-1" source="G8-joyKIpsHCp3dA0FhB-1" target="NHI0gP0lAhU-0mHKB1Oy-2" edge="1">
          <mxGeometry width="100" height="100" relative="1" as="geometry">
            <mxPoint x="738" y="750" as="sourcePoint" />
            <mxPoint x="688" y="570" as="targetPoint" />
            <Array as="points">
              <mxPoint x="1078" y="630" />
              <mxPoint x="438" y="650" />
              <mxPoint x="978" y="630" />
            </Array>
          </mxGeometry>
        </mxCell>
        <mxCell id="6oRb0mR_Q0YfdtYureJh-20" value="" style="edgeStyle=entityRelationEdgeStyle;fontSize=12;html=1;endArrow=ERmandOne;startArrow=ERmandOne;rounded=0;" parent="7COuI0TtSbbmmBBgLjVK-1" source="NHI0gP0lAhU-0mHKB1Oy-2" target="7COuI0TtSbbmmBBgLjVK-3" edge="1">
          <mxGeometry width="100" height="100" relative="1" as="geometry">
            <mxPoint x="258" y="390" as="sourcePoint" />
            <mxPoint x="358" y="290" as="targetPoint" />
          </mxGeometry>
        </mxCell>
        <mxCell id="6oRb0mR_Q0YfdtYureJh-21" value="" style="edgeStyle=entityRelationEdgeStyle;fontSize=12;html=1;endArrow=ERoneToMany;rounded=0;" parent="7COuI0TtSbbmmBBgLjVK-1" source="qANXZ15ewkDYfY9fB2zr-1" target="6oRb0mR_Q0YfdtYureJh-1" edge="1">
          <mxGeometry width="100" height="100" relative="1" as="geometry">
            <mxPoint x="1428" y="740" as="sourcePoint" />
            <mxPoint x="1528" y="640" as="targetPoint" />
          </mxGeometry>
        </mxCell>
      </root>
    </mxGraphModel>
  </diagram>
  <diagram id="Eem8BplB1vDYWti4iN6S" name="вариантов использования">
    <mxGraphModel dx="2691" dy="1820" grid="1" gridSize="10" guides="1" tooltips="1" connect="1" arrows="1" fold="1" page="1" pageScale="1" pageWidth="1169" pageHeight="1654" math="0" shadow="0">
      <root>
        <mxCell id="0" />
        <mxCell id="1" parent="0" />
        <mxCell id="-1E0GNzatUhqg6-ezwA--2" value="&lt;font style=&quot;font-size: 30px;&quot;&gt;Диаграмма вариантов использования&lt;/font&gt;" style="text;strokeColor=none;align=center;fillColor=none;html=1;verticalAlign=middle;whiteSpace=wrap;rounded=0;" vertex="1" parent="1">
          <mxGeometry x="295" y="200" width="580" height="30" as="geometry" />
        </mxCell>
        <mxCell id="-1E0GNzatUhqg6-ezwA--4" style="rounded=0;orthogonalLoop=1;jettySize=auto;html=1;entryX=0.5;entryY=0;entryDx=0;entryDy=0;dashed=1;" edge="1" parent="1" source="-1E0GNzatUhqg6-ezwA--6" target="-1E0GNzatUhqg6-ezwA--33">
          <mxGeometry relative="1" as="geometry" />
        </mxCell>
        <mxCell id="-1E0GNzatUhqg6-ezwA--5" style="rounded=0;orthogonalLoop=1;jettySize=auto;html=1;dashed=1;" edge="1" parent="1" source="-1E0GNzatUhqg6-ezwA--6" target="-1E0GNzatUhqg6-ezwA--46">
          <mxGeometry relative="1" as="geometry" />
        </mxCell>
        <mxCell id="-1E0GNzatUhqg6-ezwA--63" style="rounded=0;orthogonalLoop=1;jettySize=auto;html=1;" edge="1" parent="1" source="-1E0GNzatUhqg6-ezwA--6" target="-1E0GNzatUhqg6-ezwA--62">
          <mxGeometry relative="1" as="geometry" />
        </mxCell>
        <mxCell id="-1E0GNzatUhqg6-ezwA--67" style="edgeStyle=none;shape=connector;rounded=0;orthogonalLoop=1;jettySize=auto;html=1;strokeColor=default;align=center;verticalAlign=middle;fontFamily=Helvetica;fontSize=11;fontColor=default;labelBackgroundColor=default;endArrow=classic;" edge="1" parent="1" source="-1E0GNzatUhqg6-ezwA--6" target="-1E0GNzatUhqg6-ezwA--66">
          <mxGeometry relative="1" as="geometry" />
        </mxCell>
        <mxCell id="-1E0GNzatUhqg6-ezwA--69" style="edgeStyle=none;shape=connector;rounded=0;orthogonalLoop=1;jettySize=auto;html=1;strokeColor=default;align=center;verticalAlign=middle;fontFamily=Helvetica;fontSize=11;fontColor=default;labelBackgroundColor=default;endArrow=classic;dashed=1;" edge="1" parent="1" source="-1E0GNzatUhqg6-ezwA--6" target="-1E0GNzatUhqg6-ezwA--68">
          <mxGeometry relative="1" as="geometry" />
        </mxCell>
        <mxCell id="-1E0GNzatUhqg6-ezwA--77" style="edgeStyle=none;shape=connector;rounded=0;orthogonalLoop=1;jettySize=auto;html=1;strokeColor=default;align=center;verticalAlign=middle;fontFamily=Helvetica;fontSize=11;fontColor=default;labelBackgroundColor=default;endArrow=classic;" edge="1" parent="1" source="-1E0GNzatUhqg6-ezwA--6" target="-1E0GNzatUhqg6-ezwA--76">
          <mxGeometry relative="1" as="geometry" />
        </mxCell>
        <mxCell id="-1E0GNzatUhqg6-ezwA--6" value="&lt;span style=&quot;font-family: Calibri, sans-serif; font-size: 20px; background-color: rgb(255, 255, 255);&quot;&gt;Система&lt;/span&gt;&lt;br style=&quot;font-family: Calibri, sans-serif; font-size: 20px; background-color: rgb(255, 255, 255);&quot;&gt;&lt;span style=&quot;font-family: Calibri, sans-serif; font-size: 20px; background-color: rgb(255, 255, 255);&quot;&gt;управления лабораторными работами и отчётами по предмету современные языки&lt;/span&gt;&lt;br style=&quot;font-family: Calibri, sans-serif; font-size: 20px; background-color: rgb(255, 255, 255);&quot;&gt;&lt;span style=&quot;font-family: Calibri, sans-serif; font-size: 20px; background-color: rgb(255, 255, 255);&quot;&gt;программированияв&lt;/span&gt;" style="ellipse;whiteSpace=wrap;html=1;" vertex="1" parent="1">
          <mxGeometry x="480" y="1030" width="430" height="230" as="geometry" />
        </mxCell>
        <mxCell id="-1E0GNzatUhqg6-ezwA--7" value="" style="edgeStyle=orthogonalEdgeStyle;rounded=0;orthogonalLoop=1;jettySize=auto;html=1;endArrow=none;endFill=0;" edge="1" parent="1" source="-1E0GNzatUhqg6-ezwA--9" target="-1E0GNzatUhqg6-ezwA--39">
          <mxGeometry relative="1" as="geometry" />
        </mxCell>
        <mxCell id="-1E0GNzatUhqg6-ezwA--8" style="edgeStyle=orthogonalEdgeStyle;rounded=0;orthogonalLoop=1;jettySize=auto;html=1;endArrow=none;endFill=0;" edge="1" parent="1" source="-1E0GNzatUhqg6-ezwA--9">
          <mxGeometry relative="1" as="geometry">
            <mxPoint x="250" y="1155.0000000000002" as="targetPoint" />
          </mxGeometry>
        </mxCell>
        <mxCell id="-1E0GNzatUhqg6-ezwA--9" value="Преподователь" style="shape=umlActor;verticalLabelPosition=bottom;verticalAlign=top;html=1;outlineConnect=0;" vertex="1" parent="1">
          <mxGeometry x="50" y="1125" width="30" height="60" as="geometry" />
        </mxCell>
        <mxCell id="-1E0GNzatUhqg6-ezwA--12" style="rounded=0;orthogonalLoop=1;jettySize=auto;html=1;" edge="1" parent="1" source="-1E0GNzatUhqg6-ezwA--6" target="-1E0GNzatUhqg6-ezwA--21">
          <mxGeometry relative="1" as="geometry" />
        </mxCell>
        <mxCell id="-1E0GNzatUhqg6-ezwA--16" style="rounded=0;orthogonalLoop=1;jettySize=auto;html=1;dashed=1;" edge="1" parent="1" source="-1E0GNzatUhqg6-ezwA--18" target="-1E0GNzatUhqg6-ezwA--23">
          <mxGeometry relative="1" as="geometry" />
        </mxCell>
        <mxCell id="-1E0GNzatUhqg6-ezwA--17" style="rounded=0;orthogonalLoop=1;jettySize=auto;html=1;" edge="1" parent="1" target="-1E0GNzatUhqg6-ezwA--29" source="-1E0GNzatUhqg6-ezwA--18">
          <mxGeometry relative="1" as="geometry">
            <mxPoint x="210" y="830" as="sourcePoint" />
          </mxGeometry>
        </mxCell>
        <mxCell id="-1E0GNzatUhqg6-ezwA--18" value="выбрать лабораторную работу" style="ellipse;whiteSpace=wrap;html=1;" vertex="1" parent="1">
          <mxGeometry x="90" y="747" width="170" height="80" as="geometry" />
        </mxCell>
        <mxCell id="-1E0GNzatUhqg6-ezwA--19" value="добавить отчет" style="ellipse;whiteSpace=wrap;html=1;" vertex="1" parent="1">
          <mxGeometry x="150" y="490" width="120" height="80" as="geometry" />
        </mxCell>
        <mxCell id="-1E0GNzatUhqg6-ezwA--20" style="rounded=0;orthogonalLoop=1;jettySize=auto;html=1;" edge="1" parent="1" source="-1E0GNzatUhqg6-ezwA--21" target="-1E0GNzatUhqg6-ezwA--18">
          <mxGeometry relative="1" as="geometry" />
        </mxCell>
        <mxCell id="-1E0GNzatUhqg6-ezwA--61" style="rounded=0;orthogonalLoop=1;jettySize=auto;html=1;dashed=1;" edge="1" parent="1" source="-1E0GNzatUhqg6-ezwA--21" target="-1E0GNzatUhqg6-ezwA--60">
          <mxGeometry relative="1" as="geometry" />
        </mxCell>
        <mxCell id="-1E0GNzatUhqg6-ezwA--21" value="просмотреть лабораторные работы" style="ellipse;whiteSpace=wrap;html=1;" vertex="1" parent="1">
          <mxGeometry x="220" y="980" width="190" height="80" as="geometry" />
        </mxCell>
        <mxCell id="-1E0GNzatUhqg6-ezwA--22" style="rounded=0;orthogonalLoop=1;jettySize=auto;html=1;" edge="1" parent="1" source="-1E0GNzatUhqg6-ezwA--18" target="-1E0GNzatUhqg6-ezwA--19">
          <mxGeometry relative="1" as="geometry" />
        </mxCell>
        <mxCell id="-1E0GNzatUhqg6-ezwA--23" value="редактировать&lt;div&gt;лабораторную работу&lt;/div&gt;" style="ellipse;whiteSpace=wrap;html=1;" vertex="1" parent="1">
          <mxGeometry x="295" y="580" width="120" height="80" as="geometry" />
        </mxCell>
        <mxCell id="-1E0GNzatUhqg6-ezwA--29" value="получить информацию" style="ellipse;whiteSpace=wrap;html=1;" vertex="1" parent="1">
          <mxGeometry x="30" y="600" width="120" height="80" as="geometry" />
        </mxCell>
        <mxCell id="-1E0GNzatUhqg6-ezwA--33" value="получить среднюю оценку" style="ellipse;whiteSpace=wrap;html=1;" vertex="1" parent="1">
          <mxGeometry x="410" y="1470" width="190" height="80" as="geometry" />
        </mxCell>
        <mxCell id="-1E0GNzatUhqg6-ezwA--38" style="edgeStyle=orthogonalEdgeStyle;rounded=0;orthogonalLoop=1;jettySize=auto;html=1;entryX=0;entryY=0.5;entryDx=0;entryDy=0;endArrow=none;endFill=0;" edge="1" parent="1" source="-1E0GNzatUhqg6-ezwA--39" target="-1E0GNzatUhqg6-ezwA--47">
          <mxGeometry relative="1" as="geometry">
            <mxPoint x="220" y="1180.0000000000002" as="targetPoint" />
            <Array as="points">
              <mxPoint x="180" y="1310" />
              <mxPoint x="180" y="1155" />
            </Array>
          </mxGeometry>
        </mxCell>
        <mxCell id="-1E0GNzatUhqg6-ezwA--39" value="Администратор" style="shape=umlActor;verticalLabelPosition=bottom;verticalAlign=top;html=1;outlineConnect=0;" vertex="1" parent="1">
          <mxGeometry x="50" y="1280" width="30" height="60" as="geometry" />
        </mxCell>
        <mxCell id="-1E0GNzatUhqg6-ezwA--41" style="edgeStyle=orthogonalEdgeStyle;rounded=0;orthogonalLoop=1;jettySize=auto;html=1;entryX=0;entryY=0.5;entryDx=0;entryDy=0;endArrow=none;endFill=0;" edge="1" parent="1" source="-1E0GNzatUhqg6-ezwA--42" target="-1E0GNzatUhqg6-ezwA--47">
          <mxGeometry relative="1" as="geometry">
            <Array as="points">
              <mxPoint x="180" y="1010" />
              <mxPoint x="180" y="1155" />
            </Array>
          </mxGeometry>
        </mxCell>
        <mxCell id="-1E0GNzatUhqg6-ezwA--42" value="Студент" style="shape=umlActor;verticalLabelPosition=bottom;verticalAlign=top;html=1;outlineConnect=0;" vertex="1" parent="1">
          <mxGeometry x="50" y="980" width="30" height="60" as="geometry" />
        </mxCell>
        <mxCell id="-1E0GNzatUhqg6-ezwA--43" style="rounded=0;orthogonalLoop=1;jettySize=auto;html=1;dashed=1;" edge="1" parent="1" source="-1E0GNzatUhqg6-ezwA--6" target="-1E0GNzatUhqg6-ezwA--45">
          <mxGeometry relative="1" as="geometry" />
        </mxCell>
        <mxCell id="-1E0GNzatUhqg6-ezwA--45" value="просмотреть количество сданых работ" style="ellipse;whiteSpace=wrap;html=1;" vertex="1" parent="1">
          <mxGeometry x="660" y="1480" width="190" height="80" as="geometry" />
        </mxCell>
        <mxCell id="-1E0GNzatUhqg6-ezwA--46" value="просмотреть список&amp;nbsp;&lt;div&gt;студентов&lt;/div&gt;" style="ellipse;whiteSpace=wrap;html=1;" vertex="1" parent="1">
          <mxGeometry x="755" y="650" width="190" height="80" as="geometry" />
        </mxCell>
        <mxCell id="-1E0GNzatUhqg6-ezwA--47" value="Авторизовать /&lt;div&gt;Зарегистрировать&lt;/div&gt;" style="ellipse;whiteSpace=wrap;html=1;" vertex="1" parent="1">
          <mxGeometry x="250" y="1115" width="190" height="80" as="geometry" />
        </mxCell>
        <mxCell id="-1E0GNzatUhqg6-ezwA--48" style="rounded=1;orthogonalLoop=1;jettySize=auto;html=1;entryX=0.003;entryY=0.533;entryDx=0;entryDy=0;entryPerimeter=0;endArrow=none;endFill=0;" edge="1" parent="1" source="-1E0GNzatUhqg6-ezwA--47" target="-1E0GNzatUhqg6-ezwA--6">
          <mxGeometry relative="1" as="geometry" />
        </mxCell>
        <mxCell id="-1E0GNzatUhqg6-ezwA--49" value="*" style="text;html=1;align=center;verticalAlign=middle;resizable=0;points=[];autosize=1;strokeColor=none;fillColor=none;" vertex="1" parent="1">
          <mxGeometry x="180" y="1130" width="30" height="30" as="geometry" />
        </mxCell>
        <mxCell id="-1E0GNzatUhqg6-ezwA--50" value="1" style="text;html=1;align=center;verticalAlign=middle;resizable=0;points=[];autosize=1;strokeColor=none;fillColor=none;" vertex="1" parent="1">
          <mxGeometry x="75" y="980" width="30" height="30" as="geometry" />
        </mxCell>
        <mxCell id="-1E0GNzatUhqg6-ezwA--51" value="1" style="text;html=1;align=center;verticalAlign=middle;resizable=0;points=[];autosize=1;strokeColor=none;fillColor=none;" vertex="1" parent="1">
          <mxGeometry x="75" y="1130" width="30" height="30" as="geometry" />
        </mxCell>
        <mxCell id="-1E0GNzatUhqg6-ezwA--52" value="1" style="text;html=1;align=center;verticalAlign=middle;resizable=0;points=[];autosize=1;strokeColor=none;fillColor=none;" vertex="1" parent="1">
          <mxGeometry x="80" y="1280" width="30" height="30" as="geometry" />
        </mxCell>
        <mxCell id="-1E0GNzatUhqg6-ezwA--60" value="&lt;div&gt;создать лабораторную работу&lt;/div&gt;" style="ellipse;whiteSpace=wrap;html=1;" vertex="1" parent="1">
          <mxGeometry x="270" y="840" width="120" height="80" as="geometry" />
        </mxCell>
        <mxCell id="-1E0GNzatUhqg6-ezwA--64" style="edgeStyle=none;shape=connector;rounded=0;orthogonalLoop=1;jettySize=auto;html=1;strokeColor=default;align=center;verticalAlign=middle;fontFamily=Helvetica;fontSize=11;fontColor=default;labelBackgroundColor=default;endArrow=classic;" edge="1" parent="1" source="-1E0GNzatUhqg6-ezwA--62" target="-1E0GNzatUhqg6-ezwA--18">
          <mxGeometry relative="1" as="geometry" />
        </mxCell>
        <mxCell id="-1E0GNzatUhqg6-ezwA--65" style="edgeStyle=none;shape=connector;rounded=0;orthogonalLoop=1;jettySize=auto;html=1;strokeColor=default;align=center;verticalAlign=middle;fontFamily=Helvetica;fontSize=11;fontColor=default;labelBackgroundColor=default;endArrow=classic;dashed=1;" edge="1" parent="1" source="-1E0GNzatUhqg6-ezwA--62" target="-1E0GNzatUhqg6-ezwA--60">
          <mxGeometry relative="1" as="geometry" />
        </mxCell>
        <mxCell id="-1E0GNzatUhqg6-ezwA--62" value="просмотреть свои&amp;nbsp;&lt;div&gt;лабораторные работы&lt;/div&gt;" style="ellipse;whiteSpace=wrap;html=1;" vertex="1" parent="1">
          <mxGeometry x="350" y="740" width="190" height="80" as="geometry" />
        </mxCell>
        <mxCell id="-1E0GNzatUhqg6-ezwA--71" style="edgeStyle=none;shape=connector;rounded=0;orthogonalLoop=1;jettySize=auto;html=1;strokeColor=default;align=center;verticalAlign=middle;fontFamily=Helvetica;fontSize=11;fontColor=default;labelBackgroundColor=default;endArrow=classic;" edge="1" parent="1" source="-1E0GNzatUhqg6-ezwA--66" target="-1E0GNzatUhqg6-ezwA--70">
          <mxGeometry relative="1" as="geometry" />
        </mxCell>
        <mxCell id="-1E0GNzatUhqg6-ezwA--66" value="просмотреть проверенные&lt;div&gt;лабораторные работы&lt;/div&gt;" style="ellipse;whiteSpace=wrap;html=1;" vertex="1" parent="1">
          <mxGeometry x="460" y="650" width="190" height="80" as="geometry" />
        </mxCell>
        <mxCell id="-1E0GNzatUhqg6-ezwA--93" style="edgeStyle=none;shape=connector;rounded=0;orthogonalLoop=1;jettySize=auto;html=1;strokeColor=default;align=center;verticalAlign=middle;fontFamily=Helvetica;fontSize=11;fontColor=default;labelBackgroundColor=default;endArrow=classic;dashed=1;" edge="1" parent="1" source="-1E0GNzatUhqg6-ezwA--68" target="-1E0GNzatUhqg6-ezwA--91">
          <mxGeometry relative="1" as="geometry" />
        </mxCell>
        <mxCell id="-1E0GNzatUhqg6-ezwA--68" value="просмотреть список&amp;nbsp;&lt;div&gt;пользователей&lt;/div&gt;" style="ellipse;whiteSpace=wrap;html=1;" vertex="1" parent="1">
          <mxGeometry x="790" y="910" width="190" height="80" as="geometry" />
        </mxCell>
        <mxCell id="-1E0GNzatUhqg6-ezwA--74" style="edgeStyle=none;shape=connector;rounded=0;orthogonalLoop=1;jettySize=auto;html=1;strokeColor=default;align=center;verticalAlign=middle;fontFamily=Helvetica;fontSize=11;fontColor=default;labelBackgroundColor=default;endArrow=classic;" edge="1" parent="1" source="-1E0GNzatUhqg6-ezwA--70" target="-1E0GNzatUhqg6-ezwA--73">
          <mxGeometry relative="1" as="geometry" />
        </mxCell>
        <mxCell id="-1E0GNzatUhqg6-ezwA--70" value="выбрать лабораторную работу" style="ellipse;whiteSpace=wrap;html=1;" vertex="1" parent="1">
          <mxGeometry x="400" y="500" width="170" height="80" as="geometry" />
        </mxCell>
        <mxCell id="-1E0GNzatUhqg6-ezwA--73" value="проверить&lt;div&gt;&amp;nbsp;результат&lt;/div&gt;" style="ellipse;whiteSpace=wrap;html=1;" vertex="1" parent="1">
          <mxGeometry x="320" y="410" width="120" height="80" as="geometry" />
        </mxCell>
        <mxCell id="-1E0GNzatUhqg6-ezwA--80" style="edgeStyle=none;shape=connector;rounded=0;orthogonalLoop=1;jettySize=auto;html=1;strokeColor=default;align=center;verticalAlign=middle;fontFamily=Helvetica;fontSize=11;fontColor=default;labelBackgroundColor=default;endArrow=classic;" edge="1" parent="1" source="-1E0GNzatUhqg6-ezwA--76" target="-1E0GNzatUhqg6-ezwA--79">
          <mxGeometry relative="1" as="geometry" />
        </mxCell>
        <mxCell id="-1E0GNzatUhqg6-ezwA--76" value="просмотреть&amp;nbsp;&lt;div&gt;лабораторные работы которые находятся на проверке&lt;/div&gt;" style="ellipse;whiteSpace=wrap;html=1;" vertex="1" parent="1">
          <mxGeometry x="610" y="730" width="190" height="80" as="geometry" />
        </mxCell>
        <mxCell id="-1E0GNzatUhqg6-ezwA--82" style="edgeStyle=none;shape=connector;rounded=0;orthogonalLoop=1;jettySize=auto;html=1;strokeColor=default;align=center;verticalAlign=middle;fontFamily=Helvetica;fontSize=11;fontColor=default;labelBackgroundColor=default;endArrow=classic;" edge="1" parent="1" source="-1E0GNzatUhqg6-ezwA--79" target="-1E0GNzatUhqg6-ezwA--81">
          <mxGeometry relative="1" as="geometry" />
        </mxCell>
        <mxCell id="-1E0GNzatUhqg6-ezwA--84" style="edgeStyle=none;shape=connector;rounded=0;orthogonalLoop=1;jettySize=auto;html=1;strokeColor=default;align=center;verticalAlign=middle;fontFamily=Helvetica;fontSize=11;fontColor=default;labelBackgroundColor=default;endArrow=classic;" edge="1" parent="1" source="-1E0GNzatUhqg6-ezwA--79" target="-1E0GNzatUhqg6-ezwA--83">
          <mxGeometry relative="1" as="geometry" />
        </mxCell>
        <mxCell id="-1E0GNzatUhqg6-ezwA--86" style="edgeStyle=none;shape=connector;rounded=0;orthogonalLoop=1;jettySize=auto;html=1;strokeColor=default;align=center;verticalAlign=middle;fontFamily=Helvetica;fontSize=11;fontColor=default;labelBackgroundColor=default;endArrow=classic;dashed=1;" edge="1" parent="1" source="-1E0GNzatUhqg6-ezwA--79" target="-1E0GNzatUhqg6-ezwA--85">
          <mxGeometry relative="1" as="geometry" />
        </mxCell>
        <mxCell id="-1E0GNzatUhqg6-ezwA--79" value="выбрать лабораторную работу" style="ellipse;whiteSpace=wrap;html=1;" vertex="1" parent="1">
          <mxGeometry x="630" y="560" width="170" height="80" as="geometry" />
        </mxCell>
        <mxCell id="-1E0GNzatUhqg6-ezwA--81" value="проверить&lt;div&gt;&amp;nbsp;результат&lt;/div&gt;" style="ellipse;whiteSpace=wrap;html=1;" vertex="1" parent="1">
          <mxGeometry x="500" y="410" width="120" height="80" as="geometry" />
        </mxCell>
        <mxCell id="-1E0GNzatUhqg6-ezwA--83" value="добавить отчет" style="ellipse;whiteSpace=wrap;html=1;" vertex="1" parent="1">
          <mxGeometry x="540" y="300" width="120" height="80" as="geometry" />
        </mxCell>
        <mxCell id="-1E0GNzatUhqg6-ezwA--89" style="edgeStyle=none;shape=connector;rounded=0;orthogonalLoop=1;jettySize=auto;html=1;strokeColor=default;align=center;verticalAlign=middle;fontFamily=Helvetica;fontSize=11;fontColor=default;labelBackgroundColor=default;endArrow=classic;dashed=1;" edge="1" parent="1" source="-1E0GNzatUhqg6-ezwA--85" target="-1E0GNzatUhqg6-ezwA--87">
          <mxGeometry relative="1" as="geometry" />
        </mxCell>
        <mxCell id="-1E0GNzatUhqg6-ezwA--90" style="edgeStyle=none;shape=connector;rounded=0;orthogonalLoop=1;jettySize=auto;html=1;strokeColor=default;align=center;verticalAlign=middle;fontFamily=Helvetica;fontSize=11;fontColor=default;labelBackgroundColor=default;endArrow=classic;dashed=1;" edge="1" parent="1" source="-1E0GNzatUhqg6-ezwA--85" target="-1E0GNzatUhqg6-ezwA--88">
          <mxGeometry relative="1" as="geometry" />
        </mxCell>
        <mxCell id="-1E0GNzatUhqg6-ezwA--85" value="начать проверку" style="ellipse;whiteSpace=wrap;html=1;" vertex="1" parent="1">
          <mxGeometry x="695" y="410" width="120" height="80" as="geometry" />
        </mxCell>
        <mxCell id="-1E0GNzatUhqg6-ezwA--87" value="подтвердить результат" style="ellipse;whiteSpace=wrap;html=1;" vertex="1" parent="1">
          <mxGeometry x="670" y="260" width="120" height="80" as="geometry" />
        </mxCell>
        <mxCell id="-1E0GNzatUhqg6-ezwA--88" value="установить статус&amp;nbsp;&lt;div&gt;&quot;не сдано&quot;&lt;/div&gt;" style="ellipse;whiteSpace=wrap;html=1;" vertex="1" parent="1">
          <mxGeometry x="790" y="310" width="120" height="80" as="geometry" />
        </mxCell>
        <mxCell id="-1E0GNzatUhqg6-ezwA--96" style="edgeStyle=none;shape=connector;rounded=0;orthogonalLoop=1;jettySize=auto;html=1;strokeColor=default;align=center;verticalAlign=middle;fontFamily=Helvetica;fontSize=11;fontColor=default;labelBackgroundColor=default;endArrow=classic;dashed=1;" edge="1" parent="1" source="-1E0GNzatUhqg6-ezwA--91" target="-1E0GNzatUhqg6-ezwA--95">
          <mxGeometry relative="1" as="geometry" />
        </mxCell>
        <mxCell id="-1E0GNzatUhqg6-ezwA--97" style="edgeStyle=none;shape=connector;rounded=0;orthogonalLoop=1;jettySize=auto;html=1;strokeColor=default;align=center;verticalAlign=middle;fontFamily=Helvetica;fontSize=11;fontColor=default;labelBackgroundColor=default;endArrow=classic;dashed=1;" edge="1" parent="1" source="-1E0GNzatUhqg6-ezwA--91" target="-1E0GNzatUhqg6-ezwA--94">
          <mxGeometry relative="1" as="geometry" />
        </mxCell>
        <mxCell id="-1E0GNzatUhqg6-ezwA--91" value="просмотреть список&amp;nbsp;&lt;div&gt;пользователей&lt;/div&gt;" style="ellipse;whiteSpace=wrap;html=1;" vertex="1" parent="1">
          <mxGeometry x="910" y="747" width="190" height="80" as="geometry" />
        </mxCell>
        <mxCell id="-1E0GNzatUhqg6-ezwA--94" value="удалить&amp;nbsp;&lt;div&gt;пользователя&lt;/div&gt;" style="ellipse;whiteSpace=wrap;html=1;" vertex="1" parent="1">
          <mxGeometry x="840" y="520" width="140" height="80" as="geometry" />
        </mxCell>
        <mxCell id="-1E0GNzatUhqg6-ezwA--95" value="изменить права пользователя&amp;nbsp;&lt;div&gt;пользователя&lt;/div&gt;" style="ellipse;whiteSpace=wrap;html=1;" vertex="1" parent="1">
          <mxGeometry x="1000" y="500" width="140" height="80" as="geometry" />
        </mxCell>
      </root>
    </mxGraphModel>
  </diagram>
</mxfile>
